<?xml version="1.0" standalone="no"?>
<!DOCTYPE svg PUBLIC "-//W3C//DTD SVG 1.1//EN" "http://www.w3.org/Graphics/SVG/1.1/DTD/svg11.dtd">
<svg width="48px" height="48px" version="1.1" xmlns="http://www.w3.org/2000/svg" xmlns:xlink="http://www.w3.org/1999/xlink" xml:space="preserve" style="fill-rule:evenodd;clip-rule:evenodd;stroke-linejoin:round;stroke-miterlimit:1.41421;">
    <g>
        <g id="facebook">
            <path d="M32.8967,48L24.2066,48L24.2066,30.787L18.4577,30.787L18.4577,23.2912L24.2066,23.2912L24.2066,19.5349C24.2066,13.7414 28.4819,9.2093 33.9405,9.2093L39.2372,9.2093L39.2372,17.6707L34.4986,17.6707C33.2596,17.6707 32.8967,18.3851 32.8967,19.3674L32.8967,23.2912L39.2372,23.2912L39.2372,30.787L32.8967,30.787L32.8967,48Z" style="fill:white;"/>
            <g>
                <path d="M42,0L6,0C2.70144,0 0,2.69582 0,6L0,42C0,45.2986 2.70144,48 6,48L24.2066,48L24.2066,30.787L18.4577,30.787L18.4577,23.2912L24.2066,23.2912L24.2066,19.5349C24.2066,13.7414 28.4819,9.2093 33.9405,9.2093L39.2372,9.2093L39.2372,17.6707L34.4986,17.6707C33.2596,17.6707 32.8967,18.3851 32.8967,19.3674L32.8967,23.2912L39.2372,23.2912L39.2372,30.787L32.8967,30.787L32.8967,48L42,48C45.2987,48 48,45.2986 48,42L48,6C48,2.69582 45.2987,0 42,0Z" style="fill:rgb(59,87,157);fill-rule:nonzero;"/>
            </g>
        </g>
    </g>
</svg>
