<?xml version="1.0" standalone="no"?>
<!DOCTYPE svg PUBLIC "-//W3C//DTD SVG 1.1//EN" "http://www.w3.org/Graphics/SVG/1.1/DTD/svg11.dtd">
<svg width="48px" height="48px" version="1.1" xmlns="http://www.w3.org/2000/svg" xmlns:xlink="http://www.w3.org/1999/xlink" xml:space="preserve" style="fill-rule:evenodd;clip-rule:evenodd;stroke-linejoin:round;stroke-miterlimit:1.41421;">
    <g>
        <g id="sharrow">
            <g>
                <path d="M37.3918,39.4253L37.002,42.239L36.98,36.123L37.3865,38.9993L37.386,38.956L38.298,39.081L38.298,39.324L37.393,39.522L37.3918,39.4253ZM34.5394,36.866L34.7522,36.8481L34.907,32.625L36.055,32.264L36.1019,32.2636L36.0851,30.9732L36.077,30.965L36.077,30.3469L36.0762,30.2821L35.7541,30.2817L34.7877,31.2431L34.636,31.396L34.6347,31.3953L34.631,31.399L34.4052,35.9911L34.446,35.985L34.5394,36.866ZM35.341,39.0125L35.6351,38.9591L36.0097,36.3154L36.008,34.722L36.1322,34.5928L36.1203,33.679L35.77,33.679L35.8949,32.9735L35.642,33.093L35.341,39.0125ZM37.9063,27.0123L38.708,28.6027L39.1046,28.5402L39.147,28.239L39.416,28.2333L39.395,24.601L37.985,23.141L37.9063,27.0123ZM33.2491,28.3461L34.1431,28.4867L34.583,27.009L34.6005,27.0059L34.401,23.457L32.939,25.033L33.0344,28.1217L33.213,28.144L33.2491,28.3461ZM37.0919,26.56L37.3829,26.5079L37.382,26.507L37.0919,26.56ZM36.7987,34.5431L36.971,34.676L37.007,43.838L36.741,44.251L36.293,44.251L36.018,43.884L36.0157,41.7839L36.014,42.238L35.6376,39.5212L34.666,39.371L34.666,39.135L34.6684,39.1346L34.7288,37.4876L34.717,37.696L34.6286,37.7078L34.665,38.051L34.401,38.952L33.902,38.985L33.449,38.015L33.4559,37.8647L32.34,38.014L32.55,37.034L33.4978,36.954L33.536,36.122L33.5602,36.1184L33.463,30.771L33.8816,29.3649L31.194,29.107L31.323,28.043L31.7963,28.1175L31.822,27.97L32.3917,28.0413L32.276,24.684L34.217,22.511L35.5697,22.2487L34.942,21.621L34.9351,21.1523L34.233,20.675L34.533,20.053L34.5591,20.0329L33.95,19.237L35.926,17.205L36.704,17.159L38.483,18.877L38.4775,18.8837L38.508,18.877L38.022,19.985L37.9995,19.9911L38.041,20.029L38.554,20.915L37.545,21.3354L37.564,21.621L36.9518,22.1999L38.166,22.328L40.077,24.302L39.9964,28.2211L40.573,28.209L40.566,28.3102L41.355,28.186L41.484,29.25L39.1473,29.4741L39.182,29.543L39.661,36.31L39.6568,36.3102L39.7927,36.7296L40.813,36.777L40.939,37.587L40.0675,37.5772L40.221,38.051L39.791,38.767L39.206,38.815L38.777,38.187L38.7852,37.5629L38.171,37.556L38.124,36.652L38.7967,36.6833L38.801,36.358L39.0335,36.3374L38.814,36.347L37.915,30.867L37.3697,30.2835L36.7551,30.2828L36.7556,30.3287L36.775,31.668L36.7692,31.6622L36.7753,32.2584L36.83,32.258L37.886,32.597L38.25,39.072L37.642,38.99L37.202,33.075L37.0353,32.9866L37.121,33.679L36.7898,33.679L36.7987,34.5431Z" style="fill:black;"/>
            </g>
            <path d="M0,20.498L0,21.811L15.644,21.774L18.394,26.001L0,25.99L0,40.545L17.214,40.59L18.309,44.118L18.334,44.242L22.203,44.242L22.769,40.603L22.708,40.603L23.224,34.123L17.73,34.126L17.52,31.223L23.447,31.231L23.465,31.097L16.357,20.498Z" style="fill:black;fill-rule:nonzero;"/>
        </g>
    </g>
</svg>
