<?xml version="1.0" standalone="no"?>
<!DOCTYPE svg PUBLIC "-//W3C//DTD SVG 1.1//EN" "http://www.w3.org/Graphics/SVG/1.1/DTD/svg11.dtd">
<svg width="48px" height="48px" version="1.1" xmlns="http://www.w3.org/2000/svg" xmlns:xlink="http://www.w3.org/1999/xlink" xml:space="preserve" style="fill-rule:evenodd;clip-rule:evenodd;stroke-linejoin:round;stroke-miterlimit:1.41421;">
    <g>
        <g id="turn-lane-shared">
            <g>
                <clipPath id="tag1">
                    <rect x="0" y="-0.001" width="48" height="48.001"/>
                </clipPath>
                <g clip-path="url(#tag1)">
                    <g>
                        <path d="M47.934,30.1021L33.313,18.7571L33.313,25.7061C21.98,25.9571 20.35,33.6541 19.812,36.8711C19.48,38.8561 19.247,43.8751 19.12,47.4511C19.036,49.7751 18.985,51.1701 19.016,52.0791L25.627,52.0791C25.628,49.8241 25.754,41.3701 26.325,37.9591C27.36,31.7641 29.594,32.4011 33.313,32.3061L33.313,40.0341L47.934,30.1021Z" style="fill:black;fill-rule:nonzero;"/>
                    </g>
                    <g>
                        <path d="M0.1,18.2339L14.721,29.5789L14.721,22.6299C26.054,22.3789 27.684,14.6819 28.222,11.4649C28.554,9.4799 28.787,4.4609 28.914,0.8849C28.998,-1.4391 29.049,-2.8341 29.018,-3.7431L22.407,-3.7431C22.406,-1.4881 22.28,6.9659 21.709,10.3769C20.674,16.5719 18.44,15.9349 14.721,16.0299L14.721,8.3019L0.1,18.2339Z" style="fill:black;fill-rule:nonzero;"/>
                    </g>
                </g>
            </g>
        </g>
    </g>
</svg>
