<?xml version="1.0" standalone="no"?>
<!DOCTYPE svg PUBLIC "-//W3C//DTD SVG 1.1//EN" "http://www.w3.org/Graphics/SVG/1.1/DTD/svg11.dtd">
<svg width="48px" height="48px" version="1.1" xmlns="http://www.w3.org/2000/svg" xmlns:xlink="http://www.w3.org/1999/xlink" xml:space="preserve" style="fill-rule:evenodd;clip-rule:evenodd;stroke-linejoin:round;stroke-miterlimit:1.41421;">
    <g>
        <g id="twitter">
            <g>
                <path d="M48,9.11219C46.2313,9.8948 44.3322,10.4269 42.3444,10.6617C44.3739,9.44608 45.9392,7.51564 46.6748,5.21478C44.7705,6.34172 42.6626,7.16608 40.4192,7.60435C38.6244,5.68955 36.0626,4.49478 33.2296,4.49478C27.7931,4.49478 23.3844,8.90348 23.3844,14.3452C23.3844,15.1174 23.4678,15.8687 23.64,16.5887C15.4539,16.1765 8.19657,12.2583 3.33914,6.30001C2.49393,7.75042 2.00875,9.44608 2.00875,11.2513C2.00875,14.6635 3.74611,17.6791 6.38608,19.4478C4.77393,19.3956 3.25565,18.9522 1.92525,18.2165C1.92525,18.253 1.92525,18.2948 1.92525,18.3365C1.92525,23.1104 5.31999,27.0913 9.82261,27.9939C9,28.2183 8.12695,28.3383 7.2313,28.3383C6.59479,28.3383 5.97917,28.2809 5.37916,28.1609C6.63135,32.0739 10.2679,34.9226 14.5774,35.0009C11.2069,37.6461 6.96005,39.2165 2.34783,39.2165C1.55477,39.2165 0.767005,39.1696 1.13687e-13,39.0809C4.35657,41.8722 9.53218,43.5052 15.0939,43.5052C33.2087,43.5052 43.1165,28.5 43.1165,15.4826C43.1165,15.06 43.1061,14.6322 43.0835,14.2096C45.0104,12.8217 46.68,11.0896 48,9.11219Z" style="fill:rgb(42,169,224);fill-rule:nonzero;"/>
            </g>
        </g>
    </g>
</svg>
